<svg data-v-0dd9719b="" version="1.0" xmlns="http://www.w3.org/2000/svg" xmlns:xlink="http://www.w3.org/1999/xlink" width="100%" height="100%" viewBox="0 0 340.000000 250.000000" preserveAspectRatio="xMidYMid meet" color-interpolation-filters="sRGB" style="margin: auto;"> <rect data-v-0dd9719b="" x="0" y="0" width="100%" height="100%" fill="#fff" fill-opacity="1" class="background"></rect> <rect data-v-0dd9719b="" x="0" y="0" width="100%" height="100%" fill="url(#watermark)" fill-opacity="1" class="watermarklayer"></rect> <g data-v-0dd9719b="" fill="#333" class="icon-text-wrapper icon-svg-group iconsvg" transform="translate(57.06999969482422,96.76789283752441)"><g class="iconsvg-imagesvg" transform="translate(0,0)"><g><rect fill="#333" fill-opacity="0" stroke-width="2" x="0" y="0" width="60" height="56.464211100863906" class="image-rect"></rect> <svg x="0" y="0" width="60" height="56.464211100863906" filtersec="colorsb322527745" class="image-svg-svg primary" style="overflow: visible;"><svg xmlns="http://www.w3.org/2000/svg" viewBox="0.28515467047691345 0.27830439805984497 105.97604370117188 99.73069763183594"><path d="M91.2 16a53.15 53.15 0 0 1-1 75.14l-4.65-4.78A46.43 46.43 0 1 0 6.68 52.57a46.06 46.06 0 0 0 13.17 33l-4.78 4.67A53.17 53.17 0 0 1 91.2 16z" fill="#2b3990"></path><path d="M25.37 24.66A39.76 39.76 0 1 1 80.89 81.6l-4.65-4.78a33.09 33.09 0 1 0-46.83-.56l-4.78 4.66a39.79 39.79 0 0 1 .74-56.26z" fill="#2b3990"></path><path d="M34.68 34.21a26.43 26.43 0 1 1 36.9 37.84l-4.66-4.78A19.74 19.74 0 1 0 39 66.94l-4.81 4.66a26.44 26.44 0 0 1 .49-37.39z" fill="#2b3990"></path><path d="M44 43.76A13.09 13.09 0 1 1 62.27 62.5l-4.66-4.77a6.42 6.42 0 1 0-9.08-.11l-4.78 4.66A13.1 13.1 0 0 1 44 43.76z" fill="#2b3990"></path><path fill="#00aeef" d="M56.678 94.65l4.868-4.748 4.741 4.862-4.868 4.747zM38.09 94.553l4.868-4.747 4.74 4.86-4.868 4.748zM57.034 76.076l4.868-4.747 4.748 4.868-4.869 4.748zM66.147 85.413l4.868-4.748 4.74 4.862-4.868 4.747zM75.613 95.14l4.868-4.747 4.748 4.868-4.868 4.748zM48.142 66.954l4.868-4.748 4.74 4.861-4.868 4.748zM38.673 76.19l4.868-4.747 4.741 4.861-4.868 4.748zM52.44 80.57v-.01l-4.88 4.75.01.01 4.74 4.87 4.88-4.75-4.75-4.87zM29.207 85.43l4.869-4.747 4.74 4.861-4.868 4.748zM19.246 95.136l4.868-4.748 4.74 4.862-4.868 4.747z"></path></svg></svg> <!----></g></g> <g transform="translate(67,4.927106857299805)"><g data-gra="path-name" fill-rule="" class="tp-name iconsvg-namesvg"><g transform="scale(1)"><g><path d="M8.91 0Q7.02 0 5.98-1.04 4.94-2.08 4.94-3.9L4.94-3.9 4.94-41.99Q4.94-43.88 6.08-45.01 7.21-46.15 9.1-46.15L9.1-46.15Q11.05-46.15 12.19-45.01 13.33-43.88 13.33-41.99L13.33-41.99 13.33-6.89 31.59-6.89Q35.49-6.89 35.49-3.45L35.49-3.45Q35.49 0 31.59 0L31.59 0 8.91 0ZM82.16-5Q82.55-4.16 82.55-3.31L82.55-3.31Q82.55-1.82 81.35-0.78 80.15 0.26 78.59 0.26L78.59 0.26Q77.55 0.26 76.64-0.29 75.72-0.84 75.21-2.02L75.21-2.02 71.31-10.72 48.43-10.72 44.53-2.02Q44.01-0.84 43.09-0.29 42.19 0.26 41.08 0.26L41.08 0.26Q39.59 0.26 38.35-0.78 37.12-1.82 37.12-3.31L37.12-3.31Q37.12-4.16 37.51-5L37.51-5 55.45-43.55Q56.03-44.85 57.23-45.53 58.44-46.22 59.8-46.22L59.8-46.22Q61.17-46.22 62.37-45.53 63.57-44.85 64.16-43.55L64.16-43.55 82.16-5ZM59.87-36.53L51.29-17.23 68.44-17.23 59.87-36.53ZM93.02 0.39Q91.13 0.39 89.99-0.78 88.86-1.95 88.86-3.83L88.86-3.83 88.86-41.86Q88.86-43.75 89.93-44.79 91-45.83 92.89-45.83L92.89-45.83 115.7-45.83Q119.67-45.83 119.67-42.45L119.67-42.45Q119.67-39.13 115.7-39.13L115.7-39.13 97.11-39.13 97.11-26.65 114.4-26.65Q118.37-26.65 118.37-23.27L118.37-23.27Q118.37-19.96 114.4-19.96L114.4-19.96 97.11-19.96 97.11-3.83Q97.11-1.95 96.01-0.78 94.9 0.39 93.02 0.39L93.02 0.39ZM163.41-5Q163.8-4.16 163.8-3.31L163.8-3.31Q163.8-1.82 162.6-0.78 161.4 0.26 159.84 0.26L159.84 0.26Q158.8 0.26 157.89-0.29 156.98-0.84 156.46-2.02L156.46-2.02 152.56-10.72 129.68-10.72 125.78-2.02Q125.26-0.84 124.35-0.29 123.44 0.26 122.33 0.26L122.33 0.26Q120.84 0.26 119.6-0.78 118.37-1.82 118.37-3.31L118.37-3.31Q118.37-4.16 118.76-5L118.76-5 136.7-43.55Q137.28-44.85 138.48-45.53 139.69-46.22 141.05-46.22L141.05-46.22Q142.42-46.22 143.62-45.53 144.82-44.85 145.41-43.55L145.41-43.55 163.41-5ZM141.12-36.53L132.54-17.23 149.7-17.23 141.12-36.53Z" transform="translate(-4.940000057220459, 46.220001220703125)"></path></g> <!----> <!----> <!----> <!----> <!----> <!----> <!----></g></g> <!----></g></g><defs v-gra="od"></defs></svg>